<svg fill="none" xmlns="http://www.w3.org/2000/svg" viewBox="0 0 833 107"><path d="M111.494 31s-3.21-15.34-17.11-20.74c-6.53-2.63-18.46-3.77-30.17-3.88-11.72.11-23.65 1.25-30.19 3.74-13.89 5.39-17.1 20.74-17.1 20.74a104.576 104.576 0 0 0-2.7 25.3 98.853 98.853 0 0 0 2.7 25.3s3.21 15.35 17.1 20.74c6.53 2.49 18.46 3.73 30.18 3.83 11.71-.1 23.64-1.24 30.17-3.83 13.9-5.39 17.11-20.74 17.11-20.74a104.501 104.501 0 0 0 2.7-25.3 99.06 99.06 0 0 0-2.7-25.2l.01.04Z" fill="#58B8BA"/><path style="mix-blend-mode:multiply" d="M97.314 24.58s-3.22-15.35-17.11-20.74C73.664 1.25 61.744.11 50.024 0c-11.72.11-23.65 1.25-30.18 3.73-13.89 5.4-17.11 20.74-17.11 20.74a104.62 104.62 0 0 0-2.71 25.3 99.3 99.3 0 0 0 2.7 25.3s3.23 15.35 17.12 20.74c6.53 2.49 18.46 3.74 30.18 3.84 11.72-.11 23.64-1.24 30.18-3.84 13.89-5.39 17.11-20.74 17.11-20.74a104.98 104.98 0 0 0 2.71-25.3 99.375 99.375 0 0 0-2.69-25.19h-.02Z" fill="url(#a)"/><path d="M52.24 70.504c-3.12 0-5.976-.72-8.568-2.16-2.544-1.44-4.584-3.6-6.12-6.48-1.488-2.928-2.232-6.624-2.232-11.088 0-4.512.72-8.208 2.16-11.088 1.488-2.88 3.504-5.016 6.048-6.408 2.544-1.44 5.448-2.16 8.712-2.16 3.792 0 7.128.816 10.008 2.448 2.928 1.632 5.232 3.912 6.912 6.84 1.728 2.928 2.592 6.384 2.592 10.368s-.864 7.464-2.592 10.44c-1.68 2.928-3.984 5.208-6.912 6.84-2.88 1.632-6.216 2.448-10.008 2.448ZM30.928 83.968V31.552h8.568v9.072l-.288 10.224.72 10.224v22.896h-9ZM51.232 62.8c2.16 0 4.08-.48 5.76-1.44 1.728-.96 3.096-2.352 4.104-4.176 1.008-1.824 1.512-3.96 1.512-6.408 0-2.496-.504-4.632-1.512-6.408-1.008-1.824-2.376-3.216-4.104-4.176-1.68-.96-3.6-1.44-5.76-1.44-2.16 0-4.104.48-5.832 1.44-1.728.96-3.096 2.352-4.104 4.176-1.008 1.776-1.512 3.912-1.512 6.408 0 2.448.504 4.584 1.512 6.408 1.008 1.824 2.376 3.216 4.104 4.176 1.728.96 3.672 1.44 5.832 1.44Z" fill="#fff" fill-opacity=".8"/><path d="M68.568 70.504c-4.032 0-7.632-.84-10.8-2.52-3.12-1.728-5.568-4.08-7.344-7.056-1.776-2.976-2.664-6.36-2.664-10.152 0-3.84.888-7.224 2.664-10.152 1.776-2.976 4.224-5.304 7.344-6.984 3.168-1.68 6.768-2.52 10.8-2.52 3.744 0 7.032.768 9.864 2.304 2.88 1.488 5.064 3.696 6.552 6.624l-6.912 4.032c-1.152-1.824-2.568-3.168-4.248-4.032-1.632-.864-3.408-1.296-5.328-1.296-2.208 0-4.2.48-5.976 1.44-1.776.96-3.168 2.352-4.176 4.176-1.008 1.776-1.512 3.912-1.512 6.408 0 2.496.504 4.656 1.512 6.48 1.008 1.776 2.4 3.144 4.176 4.104 1.776.96 3.768 1.44 5.976 1.44 1.92 0 3.696-.432 5.328-1.296 1.68-.864 3.096-2.208 4.248-4.032l6.912 4.032c-1.488 2.88-3.672 5.112-6.552 6.696-2.832 1.536-6.12 2.304-9.864 2.304Z" fill="#fff" fill-opacity=".8"/><path d="M158.312 72.928c-3.12 0-5.976-.72-8.568-2.16-2.544-1.44-4.584-3.6-6.12-6.48-1.488-2.928-2.232-6.624-2.232-11.088 0-4.512.72-8.208 2.16-11.088 1.488-2.88 3.504-5.016 6.048-6.408 2.544-1.44 5.448-2.16 8.712-2.16 3.792 0 7.128.816 10.008 2.448 2.928 1.632 5.232 3.912 6.912 6.84 1.728 2.928 2.592 6.384 2.592 10.368s-.864 7.464-2.592 10.44c-1.68 2.928-3.984 5.208-6.912 6.84-2.88 1.632-6.216 2.448-10.008 2.448ZM137 86.392V33.976h8.568v9.072l-.288 10.224.72 10.224v22.896h-9Zm20.304-21.168c2.16 0 4.08-.48 5.76-1.44 1.728-.96 3.096-2.352 4.104-4.176 1.008-1.824 1.512-3.96 1.512-6.408 0-2.496-.504-4.632-1.512-6.408-1.008-1.824-2.376-3.216-4.104-4.176-1.68-.96-3.6-1.44-5.76-1.44-2.16 0-4.104.48-5.832 1.44-1.728.96-3.096 2.352-4.104 4.176-1.008 1.776-1.512 3.912-1.512 6.408 0 2.448.504 4.584 1.512 6.408 1.008 1.824 2.376 3.216 4.104 4.176 1.728.96 3.672 1.44 5.832 1.44ZM186.359 72.424V33.976h8.568V44.56l-1.008-3.096c1.152-2.592 2.952-4.56 5.4-5.904 2.496-1.344 5.592-2.016 9.288-2.016v8.568a4.465 4.465 0 0 0-1.08-.144 7.119 7.119 0 0 0-1.008-.072c-3.408 0-6.12 1.008-8.136 3.024-2.016 1.968-3.024 4.92-3.024 8.856v18.648h-9ZM233.171 72.928c-3.936 0-7.44-.84-10.512-2.52-3.072-1.728-5.496-4.08-7.272-7.056-1.776-2.976-2.664-6.36-2.664-10.152 0-3.84.888-7.224 2.664-10.152 1.776-2.976 4.2-5.304 7.272-6.984 3.072-1.68 6.576-2.52 10.512-2.52 3.984 0 7.512.84 10.584 2.52 3.12 1.68 5.544 3.984 7.272 6.912 1.776 2.928 2.664 6.336 2.664 10.224 0 3.792-.888 7.176-2.664 10.152-1.728 2.976-4.152 5.328-7.272 7.056-3.072 1.68-6.6 2.52-10.584 2.52Zm0-7.704c2.208 0 4.176-.48 5.904-1.44 1.728-.96 3.072-2.352 4.032-4.176 1.008-1.824 1.512-3.96 1.512-6.408 0-2.496-.504-4.632-1.512-6.408-.96-1.824-2.304-3.216-4.032-4.176-1.728-.96-3.672-1.44-5.832-1.44-2.208 0-4.176.48-5.904 1.44-1.68.96-3.024 2.352-4.032 4.176-1.008 1.776-1.512 3.912-1.512 6.408 0 2.448.504 4.584 1.512 6.408 1.008 1.824 2.352 3.216 4.032 4.176 1.728.96 3.672 1.44 5.832 1.44ZM278.569 72.928c-3.696 0-7.032-.816-10.008-2.448a18.377 18.377 0 0 1-6.912-6.912c-1.68-2.928-2.52-6.384-2.52-10.368s.84-7.44 2.52-10.368c1.68-2.928 3.984-5.208 6.912-6.84 2.976-1.632 6.312-2.448 10.008-2.448 3.216 0 6.096.72 8.64 2.16 2.544 1.392 4.56 3.528 6.048 6.408 1.488 2.88 2.232 6.576 2.232 11.088 0 4.464-.72 8.16-2.16 11.088-1.44 2.88-3.432 5.04-5.976 6.48-2.544 1.44-5.472 2.16-8.784 2.16Zm1.08-7.704c2.16 0 4.08-.48 5.76-1.44 1.728-.96 3.096-2.352 4.104-4.176 1.056-1.824 1.584-3.96 1.584-6.408 0-2.496-.528-4.632-1.584-6.408-1.008-1.824-2.376-3.216-4.104-4.176-1.68-.96-3.6-1.44-5.76-1.44-2.16 0-4.104.48-5.832 1.44-1.68.96-3.048 2.352-4.104 4.176-1.008 1.776-1.512 3.912-1.512 6.408 0 2.448.504 4.584 1.512 6.408 1.056 1.824 2.424 3.216 4.104 4.176 1.728.96 3.672 1.44 5.832 1.44Zm11.664 7.2v-9.072l.36-10.224-.72-10.224V19h8.928v53.424h-8.568ZM327.999 72.928c-3.264 0-6.144-.6-8.64-1.8-2.496-1.248-4.44-3.12-5.832-5.616-1.392-2.544-2.088-5.736-2.088-9.576v-21.96h9v20.736c0 3.456.768 6.048 2.304 7.776 1.584 1.68 3.816 2.52 6.696 2.52 2.112 0 3.936-.432 5.472-1.296 1.584-.864 2.808-2.16 3.672-3.888.912-1.728 1.368-3.864 1.368-6.408v-19.44h9v38.448h-8.568V62.056l1.512 3.168c-1.296 2.496-3.192 4.416-5.688 5.76-2.496 1.296-5.232 1.944-8.208 1.944ZM378.374 72.928c-4.032 0-7.632-.84-10.8-2.52-3.12-1.728-5.568-4.08-7.344-7.056-1.776-2.976-2.664-6.36-2.664-10.152 0-3.84.888-7.224 2.664-10.152 1.776-2.976 4.224-5.304 7.344-6.984 3.168-1.68 6.768-2.52 10.8-2.52 3.744 0 7.032.768 9.864 2.304 2.88 1.488 5.064 3.696 6.552 6.624l-6.912 4.032c-1.152-1.824-2.568-3.168-4.248-4.032-1.632-.864-3.408-1.296-5.328-1.296-2.208 0-4.2.48-5.976 1.44-1.776.96-3.168 2.352-4.176 4.176-1.008 1.776-1.512 3.912-1.512 6.408 0 2.496.504 4.656 1.512 6.48 1.008 1.776 2.4 3.144 4.176 4.104 1.776.96 3.768 1.44 5.976 1.44 1.92 0 3.696-.432 5.328-1.296 1.68-.864 3.096-2.208 4.248-4.032l6.912 4.032c-1.488 2.88-3.672 5.112-6.552 6.696-2.832 1.536-6.12 2.304-9.864 2.304ZM417.535 72.928c-4.224 0-7.489-1.08-9.793-3.24-2.304-2.208-3.456-5.448-3.456-9.72V25.48h9v34.272c0 1.824.457 3.24 1.369 4.248.96 1.008 2.28 1.512 3.96 1.512 2.016 0 3.696-.528 5.04-1.584l2.519 6.408c-1.056.864-2.352 1.512-3.888 1.944a17.46 17.46 0 0 1-4.751.648Zm-19.584-31.464v-7.2h25.631v7.2h-25.631ZM445.458 72.928c-3.216 0-6.312-.408-9.288-1.224-2.928-.864-5.256-1.896-6.984-3.096l3.456-6.84c1.728 1.104 3.792 2.016 6.192 2.736 2.4.72 4.8 1.08 7.2 1.08 2.832 0 4.872-.384 6.12-1.152 1.296-.768 1.944-1.8 1.944-3.096 0-1.056-.432-1.848-1.296-2.376-.864-.576-1.992-1.008-3.384-1.296a72.465 72.465 0 0 0-4.68-.792 67.708 67.708 0 0 1-5.112-.936c-1.68-.432-3.216-1.032-4.608-1.8a9.94 9.94 0 0 1-3.384-3.24c-.864-1.344-1.296-3.12-1.296-5.328 0-2.448.696-4.56 2.088-6.336 1.392-1.824 3.336-3.216 5.832-4.176 2.544-1.008 5.544-1.512 9-1.512 2.592 0 5.208.288 7.848.864 2.64.576 4.824 1.392 6.552 2.448l-3.456 6.84c-1.824-1.104-3.672-1.848-5.544-2.232a23.671 23.671 0 0 0-5.472-.648c-2.736 0-4.776.408-6.12 1.224-1.296.816-1.944 1.848-1.944 3.096 0 1.152.432 2.016 1.296 2.592.864.576 1.992 1.032 3.384 1.368 1.392.336 2.928.624 4.608.864 1.728.192 3.432.504 5.112.936 1.68.432 3.216 1.032 4.608 1.8a8.61 8.61 0 0 1 3.456 3.096c.864 1.344 1.296 3.096 1.296 5.256 0 2.4-.72 4.488-2.16 6.264-1.392 1.776-3.384 3.168-5.976 4.176-2.592.96-5.688 1.44-9.288 1.44ZM488.273 72.928c-4.032 0-7.632-.84-10.8-2.52-3.12-1.728-5.568-4.08-7.344-7.056-1.776-2.976-2.664-6.36-2.664-10.152 0-3.84.888-7.224 2.664-10.152 1.776-2.976 4.224-5.304 7.344-6.984 3.168-1.68 6.768-2.52 10.8-2.52 3.744 0 7.032.768 9.864 2.304 2.88 1.488 5.064 3.696 6.552 6.624l-6.912 4.032c-1.152-1.824-2.568-3.168-4.248-4.032-1.632-.864-3.408-1.296-5.328-1.296-2.208 0-4.2.48-5.976 1.44-1.776.96-3.168 2.352-4.176 4.176-1.008 1.776-1.512 3.912-1.512 6.408 0 2.496.504 4.656 1.512 6.48 1.008 1.776 2.4 3.144 4.176 4.104 1.776.96 3.768 1.44 5.976 1.44 1.92 0 3.696-.432 5.328-1.296 1.68-.864 3.096-2.208 4.248-4.032l6.912 4.032c-1.488 2.88-3.672 5.112-6.552 6.696-2.832 1.536-6.12 2.304-9.864 2.304ZM536.157 72.424v-7.776l-.504-1.656V49.384c0-2.64-.792-4.68-2.376-6.12-1.584-1.488-3.984-2.232-7.2-2.232-2.16 0-4.296.336-6.408 1.008-2.064.672-3.816 1.608-5.256 2.808l-3.528-6.552c2.064-1.584 4.512-2.76 7.344-3.528a32.592 32.592 0 0 1 8.928-1.224c5.568 0 9.864 1.344 12.888 4.032 3.072 2.64 4.608 6.744 4.608 12.312v22.536h-8.496Zm-12.096.504c-2.88 0-5.4-.48-7.56-1.44-2.16-1.008-3.84-2.376-5.04-4.104-1.152-1.776-1.728-3.768-1.728-5.976 0-2.16.504-4.104 1.512-5.832 1.056-1.728 2.76-3.096 5.112-4.104 2.352-1.008 5.472-1.512 9.36-1.512h11.16v5.976h-10.512c-3.072 0-5.136.504-6.192 1.512-1.056.96-1.584 2.16-1.584 3.6 0 1.632.648 2.928 1.944 3.888 1.296.96 3.096 1.44 5.4 1.44 2.208 0 4.176-.504 5.904-1.512 1.776-1.008 3.048-2.496 3.816-4.464l1.512 5.4c-.864 2.256-2.424 4.008-4.68 5.256-2.208 1.248-5.016 1.872-8.424 1.872ZM570.675 72.928c-4.224 0-7.488-1.08-9.792-3.24-2.304-2.208-3.456-5.448-3.456-9.72V25.48h9v34.272c0 1.824.456 3.24 1.368 4.248.96 1.008 2.28 1.512 3.96 1.512 2.016 0 3.696-.528 5.04-1.584l2.52 6.408c-1.056.864-2.352 1.512-3.888 1.944-1.536.432-3.12.648-4.752.648Zm-19.584-31.464v-7.2h25.632v7.2h-25.632ZM610.407 72.424v-7.776l-.504-1.656V49.384c0-2.64-.792-4.68-2.376-6.12-1.584-1.488-3.984-2.232-7.2-2.232-2.16 0-4.296.336-6.408 1.008-2.064.672-3.816 1.608-5.256 2.808l-3.528-6.552c2.064-1.584 4.512-2.76 7.344-3.528a32.592 32.592 0 0 1 8.928-1.224c5.568 0 9.864 1.344 12.888 4.032 3.072 2.64 4.608 6.744 4.608 12.312v22.536h-8.496Zm-12.096.504c-2.88 0-5.4-.48-7.56-1.44-2.16-1.008-3.84-2.376-5.04-4.104-1.152-1.776-1.728-3.768-1.728-5.976 0-2.16.504-4.104 1.512-5.832 1.056-1.728 2.76-3.096 5.112-4.104 2.352-1.008 5.472-1.512 9.36-1.512h11.16v5.976h-10.512c-3.072 0-5.136.504-6.192 1.512-1.056.96-1.584 2.16-1.584 3.6 0 1.632.648 2.928 1.944 3.888 1.296.96 3.096 1.44 5.4 1.44 2.208 0 4.176-.504 5.904-1.512 1.776-1.008 3.048-2.496 3.816-4.464l1.512 5.4c-.864 2.256-2.424 4.008-4.68 5.256-2.208 1.248-5.016 1.872-8.424 1.872ZM630.453 72.424V19h9v53.424h-9ZM668.546 72.928c-3.936 0-7.44-.84-10.512-2.52-3.072-1.728-5.496-4.08-7.272-7.056-1.776-2.976-2.664-6.36-2.664-10.152 0-3.84.888-7.224 2.664-10.152 1.776-2.976 4.2-5.304 7.272-6.984 3.072-1.68 6.576-2.52 10.512-2.52 3.984 0 7.512.84 10.584 2.52 3.12 1.68 5.544 3.984 7.272 6.912 1.776 2.928 2.664 6.336 2.664 10.224 0 3.792-.888 7.176-2.664 10.152-1.728 2.976-4.152 5.328-7.272 7.056-3.072 1.68-6.6 2.52-10.584 2.52Zm0-7.704c2.208 0 4.176-.48 5.904-1.44 1.728-.96 3.072-2.352 4.032-4.176 1.008-1.824 1.512-3.96 1.512-6.408 0-2.496-.504-4.632-1.512-6.408-.96-1.824-2.304-3.216-4.032-4.176-1.728-.96-3.672-1.44-5.832-1.44-2.208 0-4.176.48-5.904 1.44-1.68.96-3.024 2.352-4.032 4.176-1.008 1.776-1.512 3.912-1.512 6.408 0 2.448.504 4.584 1.512 6.408 1.008 1.824 2.352 3.216 4.032 4.176 1.728.96 3.672 1.44 5.832 1.44ZM715.096 86.896c-3.552 0-7.032-.48-10.44-1.44-3.36-.912-6.12-2.256-8.28-4.032l4.032-6.768c1.68 1.392 3.792 2.496 6.336 3.312 2.592.864 5.208 1.296 7.848 1.296 4.224 0 7.32-.984 9.288-2.952 1.968-1.92 2.952-4.824 2.952-8.712v-6.84l.72-8.712-.288-8.712v-9.36h8.568v32.616c0 6.96-1.776 12.072-5.328 15.336-3.552 3.312-8.688 4.968-15.408 4.968Zm-1.152-16.2c-3.648 0-6.96-.768-9.936-2.304-2.928-1.584-5.256-3.768-6.984-6.552-1.68-2.784-2.52-6.048-2.52-9.792 0-3.696.84-6.936 2.52-9.72 1.728-2.784 4.056-4.944 6.984-6.48 2.976-1.536 6.288-2.304 9.936-2.304 3.264 0 6.192.648 8.784 1.944 2.592 1.296 4.656 3.312 6.192 6.048 1.584 2.736 2.376 6.24 2.376 10.512s-.792 7.8-2.376 10.584c-1.536 2.736-3.6 4.776-6.192 6.12-2.592 1.296-5.52 1.944-8.784 1.944Zm1.368-7.632c2.256 0 4.272-.456 6.048-1.368 1.776-.96 3.144-2.256 4.104-3.888 1.008-1.68 1.512-3.6 1.512-5.76 0-2.16-.504-4.056-1.512-5.688-.96-1.68-2.328-2.952-4.104-3.816-1.776-.912-3.792-1.368-6.048-1.368-2.256 0-4.296.456-6.12 1.368a9.73 9.73 0 0 0-4.176 3.816c-.96 1.632-1.44 3.528-1.44 5.688 0 2.16.48 4.08 1.44 5.76 1.008 1.632 2.4 2.928 4.176 3.888 1.824.912 3.864 1.368 6.12 1.368ZM763.936 72.928c-3.264 0-6.144-.6-8.64-1.8-2.496-1.248-4.44-3.12-5.832-5.616-1.392-2.544-2.088-5.736-2.088-9.576v-21.96h9v20.736c0 3.456.768 6.048 2.304 7.776 1.584 1.68 3.816 2.52 6.696 2.52 2.112 0 3.936-.432 5.472-1.296 1.584-.864 2.808-2.16 3.672-3.888.912-1.728 1.368-3.864 1.368-6.408v-19.44h9v38.448h-8.568V62.056l1.512 3.168c-1.296 2.496-3.192 4.416-5.688 5.76-2.496 1.296-5.232 1.944-8.208 1.944ZM814.744 72.928c-4.272 0-8.016-.84-11.232-2.52-3.168-1.728-5.64-4.08-7.416-7.056-1.728-2.976-2.592-6.36-2.592-10.152 0-3.84.84-7.224 2.52-10.152 1.728-2.976 4.08-5.304 7.056-6.984 3.024-1.68 6.456-2.52 10.296-2.52 3.744 0 7.08.816 10.008 2.448 2.928 1.632 5.232 3.936 6.912 6.912 1.68 2.976 2.52 6.48 2.52 10.512 0 .384-.024.816-.072 1.296 0 .48-.024.936-.072 1.368h-32.04v-5.976h27.288l-3.528 1.872c.048-2.208-.408-4.152-1.368-5.832-.96-1.68-2.28-3-3.96-3.96-1.632-.96-3.528-1.44-5.688-1.44-2.208 0-4.152.48-5.832 1.44-1.632.96-2.928 2.304-3.888 4.032-.912 1.68-1.368 3.672-1.368 5.976v1.44c0 2.304.528 4.344 1.584 6.12 1.056 1.776 2.544 3.144 4.464 4.104 1.92.96 4.128 1.44 6.624 1.44 2.16 0 4.104-.336 5.832-1.008 1.728-.672 3.264-1.728 4.608-3.168l4.824 5.544c-1.728 2.016-3.912 3.576-6.552 4.68-2.592 1.056-5.568 1.584-8.928 1.584Z" fill="#fff"/><defs><radialGradient id="a" cx="0" cy="0" r="1" gradientUnits="userSpaceOnUse" gradientTransform="translate(51.446 49.871) scale(49.9556)"><stop offset=".01" stop-color="#5E3089"/><stop offset=".3" stop-color="#603089"/><stop offset=".46" stop-color="#693189"/><stop offset=".6" stop-color="#77328A"/><stop offset=".67" stop-color="#7C338A"/><stop offset=".76" stop-color="#8B368C"/><stop offset=".85" stop-color="#A43B8E"/><stop offset=".95" stop-color="#C64290"/><stop offset=".99" stop-color="#D94692"/></radialGradient></defs></svg>
